<svg width="128" height="128" viewBox="0 0 128 128" fill="none" xmlns="http://www.w3.org/2000/svg">
<path d="M109.248 18.7383C84.2508 -6.2514 43.7281 -6.2454 18.7383 18.7521C-6.2514 43.7495 -6.2454 84.272 18.7521 109.262C43.7496 134.251 84.272 134.245 109.262 109.248C121.263 97.2427 128.004 80.9615 128 63.9863C127.997 47.0138 121.251 30.7378 109.248 18.7383ZM96.9258 89.1512C96.923 89.154 96.9203 89.157 96.9173 89.1597V89.1385L93.6745 92.3597C89.4808 96.6065 83.373 98.3537 77.5678 96.9677C71.719 95.4022 66.159 92.9102 61.0986 89.5865C56.3971 86.5817 52.0401 83.0692 48.1066 79.1117C44.4873 75.519 41.2358 71.574 38.3998 67.3357C35.2978 62.7752 32.8426 57.8073 31.1038 52.573C29.1106 46.424 30.7623 39.6768 35.3706 35.1438L39.1678 31.3465C40.2236 30.2861 41.9391 30.2823 42.9993 31.338C43.0021 31.3408 43.0051 31.3435 43.0078 31.3465L54.9971 43.3358C56.0576 44.3915 56.0613 46.107 55.0056 47.1673C55.0028 47.17 55.0001 47.1728 54.9971 47.1758L47.9571 54.2158C45.9371 56.2138 45.6831 59.3888 47.3598 61.6825C49.9061 65.177 52.7238 68.4652 55.7866 71.5172C59.2013 74.9467 62.9135 78.0665 66.8798 80.84C69.1715 82.4385 72.2785 82.169 74.261 80.2L81.0663 73.288C82.122 72.2275 83.8375 72.2237 84.8978 73.2795C84.9005 73.2822 84.9033 73.285 84.9063 73.288L96.917 85.32C97.9778 86.3755 97.9815 88.0907 96.9258 89.1512Z" fill="#DB0A16"/>
</svg>
